<?xml version="1.0" encoding="UTF-8"?><svg xmlns="http://www.w3.org/2000/svg" xmlns:xlink="http://www.w3.org/1999/xlink" stroke-dasharray="none" shape-rendering="auto" font-family="'Dialog'" width="1101" text-rendering="auto" fill-opacity="1" contentScriptType="text/ecmascript" color-interpolation="auto" color-rendering="auto" preserveAspectRatio="xMidYMid meet" font-size="12" viewBox="0 0 1101 361" fill="black" stroke="black" image-rendering="auto" stroke-miterlimit="10" zoomAndPan="magnify" version="1.0" stroke-linecap="square" stroke-linejoin="miter" contentStyleType="text/css" font-style="normal" height="361" stroke-width="1" stroke-dashoffset="0" font-weight="normal" stroke-opacity="1">
<!--Generated by the Batik Graphics2D SVG Generator-->
<defs id="genericDefs"/>
<g>
<defs id="defs1">
<clipPath clipPathUnits="userSpaceOnUse" id="clipPath1">
<path d="M850 150 L850 210 L1090 210 L1090 170 L998 170 L998 150 Z"/>
</clipPath>
<clipPath clipPathUnits="userSpaceOnUse" id="clipPath2">
<path d="M847 147 L1094 147 L1094 214 L847 214 L847 147 Z"/>
</clipPath>
<clipPath clipPathUnits="userSpaceOnUse" id="clipPath3">
<path d="M855 152 L995 152 L995 168 L855 168 L855 152 Z"/>
</clipPath>
<clipPath clipPathUnits="userSpaceOnUse" id="clipPath4">
<path d="M850 169 L1092 169 L1092 211 L850 211 L850 169 Z"/>
</clipPath>
<clipPath clipPathUnits="userSpaceOnUse" id="clipPath5">
<path d="M10 290 L10 350 L250 350 L250 310 L214 310 L214 290 Z"/>
</clipPath>
<clipPath clipPathUnits="userSpaceOnUse" id="clipPath6">
<path d="M7 287 L254 287 L254 354 L7 354 L7 287 Z"/>
</clipPath>
<clipPath clipPathUnits="userSpaceOnUse" id="clipPath7">
<path d="M15 292 L211 292 L211 308 L15 308 L15 292 Z"/>
</clipPath>
<clipPath clipPathUnits="userSpaceOnUse" id="clipPath8">
<path d="M10 309 L252 309 L252 351 L10 351 L10 309 Z"/>
</clipPath>
<clipPath clipPathUnits="userSpaceOnUse" id="clipPath9">
<path d="M10 150 L10 210 L250 210 L250 170 L163 170 L163 150 Z"/>
</clipPath>
<clipPath clipPathUnits="userSpaceOnUse" id="clipPath10">
<path d="M7 147 L254 147 L254 214 L7 214 L7 147 Z"/>
</clipPath>
<clipPath clipPathUnits="userSpaceOnUse" id="clipPath11">
<path d="M15 152 L160 152 L160 168 L15 168 L15 152 Z"/>
</clipPath>
<clipPath clipPathUnits="userSpaceOnUse" id="clipPath12">
<path d="M10 169 L252 169 L252 211 L10 211 L10 169 Z"/>
</clipPath>
<clipPath clipPathUnits="userSpaceOnUse" id="clipPath13">
<path d="M290 150 L290 210 L530 210 L530 170 L441 170 L441 150 Z"/>
</clipPath>
<clipPath clipPathUnits="userSpaceOnUse" id="clipPath14">
<path d="M287 147 L534 147 L534 214 L287 214 L287 147 Z"/>
</clipPath>
<clipPath clipPathUnits="userSpaceOnUse" id="clipPath15">
<path d="M295 152 L438 152 L438 168 L295 168 L295 152 Z"/>
</clipPath>
<clipPath clipPathUnits="userSpaceOnUse" id="clipPath16">
<path d="M290 169 L532 169 L532 211 L290 211 L290 169 Z"/>
</clipPath>
<clipPath clipPathUnits="userSpaceOnUse" id="clipPath17">
<path d="M570 150 L570 210 L810 210 L810 170 L758 170 L758 150 Z"/>
</clipPath>
<clipPath clipPathUnits="userSpaceOnUse" id="clipPath18">
<path d="M567 147 L814 147 L814 214 L567 214 L567 147 Z"/>
</clipPath>
<clipPath clipPathUnits="userSpaceOnUse" id="clipPath19">
<path d="M575 152 L755 152 L755 168 L575 168 L575 152 Z"/>
</clipPath>
<clipPath clipPathUnits="userSpaceOnUse" id="clipPath20">
<path d="M570 169 L812 169 L812 211 L570 211 L570 169 Z"/>
</clipPath>
<clipPath clipPathUnits="userSpaceOnUse" id="clipPath21">
<path d="M730 290 L730 350 L970 350 L970 310 L916 310 L916 290 Z"/>
</clipPath>
<clipPath clipPathUnits="userSpaceOnUse" id="clipPath22">
<path d="M727 287 L974 287 L974 354 L727 354 L727 287 Z"/>
</clipPath>
<clipPath clipPathUnits="userSpaceOnUse" id="clipPath23">
<path d="M735 292 L913 292 L913 308 L735 308 L735 292 Z"/>
</clipPath>
<clipPath clipPathUnits="userSpaceOnUse" id="clipPath24">
<path d="M730 309 L972 309 L972 351 L730 351 L730 309 Z"/>
</clipPath>
<clipPath clipPathUnits="userSpaceOnUse" id="clipPath25">
<path d="M430 10 L430 70 L670 70 L670 30 L555 30 L555 10 Z"/>
</clipPath>
<clipPath clipPathUnits="userSpaceOnUse" id="clipPath26">
<path d="M427 7 L674 7 L674 74 L427 74 L427 7 Z"/>
</clipPath>
<clipPath clipPathUnits="userSpaceOnUse" id="clipPath27">
<path d="M435 12 L552 12 L552 28 L435 28 L435 12 Z"/>
</clipPath>
<clipPath clipPathUnits="userSpaceOnUse" id="clipPath28">
<path d="M430 29 L672 29 L672 71 L430 71 L430 29 Z"/>
</clipPath>
<clipPath clipPathUnits="userSpaceOnUse" id="clipPath29">
<path d="M-1 -1 L1102 -1 L1102 362 L-1 362 L-1 -1 Z"/>
</clipPath>
<clipPath clipPathUnits="userSpaceOnUse" id="clipPath30">
<path d="M124 210 L137 210 L137 228 L124 228 L124 210 Z"/>
</clipPath>
<clipPath clipPathUnits="userSpaceOnUse" id="clipPath31">
<path d="M544 70 L557 70 L557 88 L544 88 L544 70 Z"/>
</clipPath>
<clipPath clipPathUnits="userSpaceOnUse" id="clipPath32">
<path d="M824 274 L837 274 L837 292 L824 292 L824 274 Z"/>
</clipPath>
</defs>
<g font-size="15" fill="white" font-family="'Ubuntu'" stroke-linejoin="round" stroke="white" stroke-width="0" stroke-miterlimit="0">
<path d="M850 150 L998 150 L998 170 L1090 170 L1090 210 L850 210 ZM850 150" clip-path="url(#clipPath1)" fill-rule="evenodd" stroke="none"/>
</g>
<g stroke-width="1.1" font-size="15" font-family="'Ubuntu'" stroke-linecap="butt">
<line clip-path="url(#clipPath2)" fill="none" x1="850" x2="998" y1="150" y2="150"/>
<line clip-path="url(#clipPath2)" fill="none" x1="998" x2="998" y1="150" y2="170"/>
<line clip-path="url(#clipPath2)" fill="none" x1="998" x2="1090" y1="170" y2="170"/>
<line clip-path="url(#clipPath2)" fill="none" x1="1090" x2="1090" y1="170" y2="210"/>
<line clip-path="url(#clipPath2)" fill="none" x1="1090" x2="850" y1="210" y2="210"/>
<line clip-path="url(#clipPath2)" fill="none" x1="850" x2="850" y1="210" y2="150"/>
<text x="856" font-size="12" y="165" clip-path="url(#clipPath3)" font-family="'Dialog'" stroke="none" xml:space="preserve">org.objectweb.asm.util</text>
<line clip-path="url(#clipPath4)" fill="none" x1="850" x2="1090" y1="170" y2="170"/>
<path fill="white" d="M10 290 L214 290 L214 310 L250 310 L250 350 L10 350 ZM10 290" clip-path="url(#clipPath5)" fill-rule="evenodd" stroke="none"/>
<line clip-path="url(#clipPath6)" fill="none" x1="10" x2="214" y1="290" y2="290"/>
<line clip-path="url(#clipPath6)" fill="none" x1="214" x2="214" y1="290" y2="310"/>
<line clip-path="url(#clipPath6)" fill="none" x1="214" x2="250" y1="310" y2="310"/>
<line clip-path="url(#clipPath6)" fill="none" x1="250" x2="250" y1="310" y2="350"/>
<line clip-path="url(#clipPath6)" fill="none" x1="250" x2="10" y1="350" y2="350"/>
<line clip-path="url(#clipPath6)" fill="none" x1="10" x2="10" y1="350" y2="290"/>
<text x="16" font-size="12" y="305" clip-path="url(#clipPath7)" font-family="'Dialog'" stroke="none" xml:space="preserve">org.objectweb.asm.tree.analysis</text>
<line clip-path="url(#clipPath8)" fill="none" x1="10" x2="250" y1="310" y2="310"/>
<path fill="white" d="M10 150 L163 150 L163 170 L250 170 L250 210 L10 210 ZM10 150" clip-path="url(#clipPath9)" fill-rule="evenodd" stroke="none"/>
<line clip-path="url(#clipPath10)" fill="none" x1="10" x2="163" y1="150" y2="150"/>
<line clip-path="url(#clipPath10)" fill="none" x1="163" x2="163" y1="150" y2="170"/>
<line clip-path="url(#clipPath10)" fill="none" x1="163" x2="250" y1="170" y2="170"/>
<line clip-path="url(#clipPath10)" fill="none" x1="250" x2="250" y1="170" y2="210"/>
<line clip-path="url(#clipPath10)" fill="none" x1="250" x2="10" y1="210" y2="210"/>
<line clip-path="url(#clipPath10)" fill="none" x1="10" x2="10" y1="210" y2="150"/>
<text x="16" font-size="12" y="165" clip-path="url(#clipPath11)" font-family="'Dialog'" stroke="none" xml:space="preserve">org.objectweb.asm.tree</text>
<line clip-path="url(#clipPath12)" fill="none" x1="10" x2="250" y1="170" y2="170"/>
<path fill="white" d="M290 150 L441 150 L441 170 L530 170 L530 210 L290 210 ZM290 150" clip-path="url(#clipPath13)" fill-rule="evenodd" stroke="none"/>
<line clip-path="url(#clipPath14)" fill="none" x1="290" x2="441" y1="150" y2="150"/>
<line clip-path="url(#clipPath14)" fill="none" x1="441" x2="441" y1="150" y2="170"/>
<line clip-path="url(#clipPath14)" fill="none" x1="441" x2="530" y1="170" y2="170"/>
<line clip-path="url(#clipPath14)" fill="none" x1="530" x2="530" y1="170" y2="210"/>
<line clip-path="url(#clipPath14)" fill="none" x1="530" x2="290" y1="210" y2="210"/>
<line clip-path="url(#clipPath14)" fill="none" x1="290" x2="290" y1="210" y2="150"/>
<text x="296" font-size="12" y="165" clip-path="url(#clipPath15)" font-family="'Dialog'" stroke="none" xml:space="preserve">org.objectweb.asm.xml</text>
<line clip-path="url(#clipPath16)" fill="none" x1="290" x2="530" y1="170" y2="170"/>
<path fill="white" d="M570 150 L758 150 L758 170 L810 170 L810 210 L570 210 ZM570 150" clip-path="url(#clipPath17)" fill-rule="evenodd" stroke="none"/>
<line clip-path="url(#clipPath18)" fill="none" x1="570" x2="758" y1="150" y2="150"/>
<line clip-path="url(#clipPath18)" fill="none" x1="758" x2="758" y1="150" y2="170"/>
<line clip-path="url(#clipPath18)" fill="none" x1="758" x2="810" y1="170" y2="170"/>
<line clip-path="url(#clipPath18)" fill="none" x1="810" x2="810" y1="170" y2="210"/>
<line clip-path="url(#clipPath18)" fill="none" x1="810" x2="570" y1="210" y2="210"/>
<line clip-path="url(#clipPath18)" fill="none" x1="570" x2="570" y1="210" y2="150"/>
<text x="576" font-size="12" y="165" clip-path="url(#clipPath19)" font-family="'Dialog'" stroke="none" xml:space="preserve">org.objectweb.asm.commons</text>
<line clip-path="url(#clipPath20)" fill="none" x1="570" x2="810" y1="170" y2="170"/>
<path fill="white" d="M730 290 L916 290 L916 310 L970 310 L970 350 L730 350 ZM730 290" clip-path="url(#clipPath21)" fill-rule="evenodd" stroke="none"/>
<line clip-path="url(#clipPath22)" fill="none" x1="730" x2="916" y1="290" y2="290"/>
<line clip-path="url(#clipPath22)" fill="none" x1="916" x2="916" y1="290" y2="310"/>
<line clip-path="url(#clipPath22)" fill="none" x1="916" x2="970" y1="310" y2="310"/>
<line clip-path="url(#clipPath22)" fill="none" x1="970" x2="970" y1="310" y2="350"/>
<line clip-path="url(#clipPath22)" fill="none" x1="970" x2="730" y1="350" y2="350"/>
<line clip-path="url(#clipPath22)" fill="none" x1="730" x2="730" y1="350" y2="290"/>
<text x="736" font-size="12" y="305" clip-path="url(#clipPath23)" font-family="'Dialog'" stroke="none" xml:space="preserve">org.objectweb.asm.signature</text>
<line clip-path="url(#clipPath24)" fill="none" x1="730" x2="970" y1="310" y2="310"/>
<path fill="white" d="M430 10 L555 10 L555 30 L670 30 L670 70 L430 70 ZM430 10" clip-path="url(#clipPath25)" fill-rule="evenodd" stroke="none"/>
<line clip-path="url(#clipPath26)" fill="none" x1="430" x2="555" y1="10" y2="10"/>
<line clip-path="url(#clipPath26)" fill="none" x1="555" x2="555" y1="10" y2="30"/>
<line clip-path="url(#clipPath26)" fill="none" x1="555" x2="670" y1="30" y2="30"/>
<line clip-path="url(#clipPath26)" fill="none" x1="670" x2="670" y1="30" y2="70"/>
<line clip-path="url(#clipPath26)" fill="none" x1="670" x2="430" y1="70" y2="70"/>
<line clip-path="url(#clipPath26)" fill="none" x1="430" x2="430" y1="70" y2="10"/>
<text x="436" font-size="12" y="25" clip-path="url(#clipPath27)" font-family="'Dialog'" stroke="none" xml:space="preserve">org.objectweb.asm</text>
<line clip-path="url(#clipPath28)" fill="none" x1="430" x2="670" y1="30" y2="30"/>
</g>
<g text-rendering="optimizeLegibility" stroke-width="1.1" stroke-dasharray="5,5,5,5,5,5,5,5,5,5" stroke-linecap="butt">
<line clip-path="url(#clipPath29)" fill="none" x1="130" x2="130" y1="290" y2="211"/>
<line clip-path="url(#clipPath30)" fill="none" x1="135" x2="130" y1="226" y2="211" stroke-dasharray="none"/>
<line clip-path="url(#clipPath30)" fill="none" x1="130" x2="125" y1="211" y2="226" stroke-dasharray="none"/>
<line clip-path="url(#clipPath29)" fill="none" x1="130" x2="130" y1="150" y2="110"/>
<line clip-path="url(#clipPath29)" fill="none" x1="130" x2="550" y1="110" y2="110"/>
<line clip-path="url(#clipPath29)" fill="none" x1="550" x2="550" y1="110" y2="71"/>
<line clip-path="url(#clipPath31)" fill="none" x1="555" x2="550" y1="86" y2="71" stroke-dasharray="none"/>
<line clip-path="url(#clipPath31)" fill="none" x1="550" x2="545" y1="71" y2="86" stroke-dasharray="none"/>
<line clip-path="url(#clipPath29)" fill="none" x1="410" x2="410" y1="150" y2="110"/>
<line clip-path="url(#clipPath29)" fill="none" x1="410" x2="550" y1="110" y2="110"/>
<line clip-path="url(#clipPath29)" fill="none" x1="550" x2="550" y1="110" y2="71"/>
<line clip-path="url(#clipPath31)" fill="none" x1="555" x2="550" y1="86" y2="71" stroke-dasharray="none"/>
<line clip-path="url(#clipPath31)" fill="none" x1="550" x2="545" y1="71" y2="86" stroke-dasharray="none"/>
<line clip-path="url(#clipPath29)" fill="none" x1="690" x2="690" y1="150" y2="110"/>
<line clip-path="url(#clipPath29)" fill="none" x1="690" x2="550" y1="110" y2="110"/>
<line clip-path="url(#clipPath29)" fill="none" x1="550" x2="550" y1="110" y2="71"/>
<line clip-path="url(#clipPath31)" fill="none" x1="555" x2="550" y1="86" y2="71" stroke-dasharray="none"/>
<line clip-path="url(#clipPath31)" fill="none" x1="550" x2="545" y1="71" y2="86" stroke-dasharray="none"/>
<line clip-path="url(#clipPath29)" fill="none" x1="970" x2="970" y1="150" y2="110"/>
<line clip-path="url(#clipPath29)" fill="none" x1="970" x2="550" y1="110" y2="110"/>
<line clip-path="url(#clipPath29)" fill="none" x1="550" x2="550" y1="110" y2="71"/>
<line clip-path="url(#clipPath31)" fill="none" x1="555" x2="550" y1="86" y2="71" stroke-dasharray="none"/>
<line clip-path="url(#clipPath31)" fill="none" x1="550" x2="545" y1="71" y2="86" stroke-dasharray="none"/>
<line clip-path="url(#clipPath29)" fill="none" x1="690" x2="690" y1="211" y2="250"/>
<line clip-path="url(#clipPath29)" fill="none" x1="690" x2="830" y1="250" y2="250"/>
<line clip-path="url(#clipPath29)" fill="none" x1="830" x2="830" y1="250" y2="290"/>
<line clip-path="url(#clipPath32)" fill="none" x1="825" x2="830" y1="275" y2="290" stroke-dasharray="none"/>
<line clip-path="url(#clipPath32)" fill="none" x1="830" x2="835" y1="290" y2="275" stroke-dasharray="none"/>
<line clip-path="url(#clipPath29)" fill="none" x1="970" x2="970" y1="211" y2="250"/>
<line clip-path="url(#clipPath29)" fill="none" x1="970" x2="830" y1="250" y2="250"/>
<line clip-path="url(#clipPath29)" fill="none" x1="830" x2="830" y1="250" y2="290"/>
<line clip-path="url(#clipPath32)" fill="none" x1="825" x2="830" y1="275" y2="290" stroke-dasharray="none"/>
<line clip-path="url(#clipPath32)" fill="none" x1="830" x2="835" y1="290" y2="275" stroke-dasharray="none"/>
</g>
</g>
</svg>
