<?xml version="1.0" encoding="UTF-8"?><svg xmlns="http://www.w3.org/2000/svg" xmlns:xlink="http://www.w3.org/1999/xlink" stroke-dasharray="none" shape-rendering="auto" font-family="'Dialog'" width="755" text-rendering="auto" fill-opacity="1" contentScriptType="text/ecmascript" color-interpolation="auto" color-rendering="auto" preserveAspectRatio="xMidYMid meet" font-size="12" viewBox="0 0 755 541" fill="black" stroke="black" image-rendering="auto" stroke-miterlimit="10" zoomAndPan="magnify" version="1.0" stroke-linecap="square" stroke-linejoin="miter" contentStyleType="text/css" font-style="normal" height="541" stroke-width="1" stroke-dashoffset="0" font-weight="normal" stroke-opacity="1">
<!--Generated by the Batik Graphics2D SVG Generator-->
<defs id="genericDefs"/>
<g>
<defs id="defs1">
<linearGradient x1="78" x2="78" y1="90" gradientUnits="userSpaceOnUse" y2="131" xlink:type="simple" xlink:actuate="onLoad" id="linearGradient1" xlink:show="other" spreadMethod="pad">
<stop stop-opacity="1" stop-color="white" offset="0%"/>
<stop stop-opacity="1" stop-color="white" offset="100%"/>
</linearGradient>
<linearGradient x1="78" x2="78" y1="190" gradientUnits="userSpaceOnUse" y2="231" xlink:type="simple" xlink:actuate="onLoad" id="linearGradient2" xlink:show="other" spreadMethod="pad">
<stop stop-opacity="1" stop-color="white" offset="0%"/>
<stop stop-opacity="1" stop-color="white" offset="100%"/>
</linearGradient>
<linearGradient x1="78" x2="78" y1="390" gradientUnits="userSpaceOnUse" y2="431" xlink:type="simple" xlink:actuate="onLoad" id="linearGradient3" xlink:show="other" spreadMethod="pad">
<stop stop-opacity="1" stop-color="white" offset="0%"/>
<stop stop-opacity="1" stop-color="white" offset="100%"/>
</linearGradient>
<linearGradient x1="78" x2="78" y1="290" gradientUnits="userSpaceOnUse" y2="331" xlink:type="simple" xlink:actuate="onLoad" id="linearGradient4" xlink:show="other" spreadMethod="pad">
<stop stop-opacity="1" stop-color="white" offset="0%"/>
<stop stop-opacity="1" stop-color="white" offset="100%"/>
</linearGradient>
<linearGradient x1="78" x2="78" y1="490" gradientUnits="userSpaceOnUse" y2="531" xlink:type="simple" xlink:actuate="onLoad" id="linearGradient5" xlink:show="other" spreadMethod="pad">
<stop stop-opacity="1" stop-color="white" offset="0%"/>
<stop stop-opacity="1" stop-color="white" offset="100%"/>
</linearGradient>
<linearGradient x1="558" x2="558" y1="390" gradientUnits="userSpaceOnUse" y2="431" xlink:type="simple" xlink:actuate="onLoad" id="linearGradient6" xlink:show="other" spreadMethod="pad">
<stop stop-opacity="1" stop-color="white" offset="0%"/>
<stop stop-opacity="1" stop-color="white" offset="100%"/>
</linearGradient>
<linearGradient x1="558" x2="558" y1="290" gradientUnits="userSpaceOnUse" y2="331" xlink:type="simple" xlink:actuate="onLoad" id="linearGradient7" xlink:show="other" spreadMethod="pad">
<stop stop-opacity="1" stop-color="white" offset="0%"/>
<stop stop-opacity="1" stop-color="white" offset="100%"/>
</linearGradient>
<linearGradient x1="318" x2="318" y1="390" gradientUnits="userSpaceOnUse" y2="431" xlink:type="simple" xlink:actuate="onLoad" id="linearGradient8" xlink:show="other" spreadMethod="pad">
<stop stop-opacity="1" stop-color="white" offset="0%"/>
<stop stop-opacity="1" stop-color="white" offset="100%"/>
</linearGradient>
<linearGradient x1="458" x2="458" y1="10" gradientUnits="userSpaceOnUse" y2="51" xlink:type="simple" xlink:actuate="onLoad" id="linearGradient9" xlink:show="other" spreadMethod="pad">
<stop stop-opacity="1" stop-color="white" offset="0%"/>
<stop stop-opacity="1" stop-color="white" offset="100%"/>
</linearGradient>
<linearGradient x1="598" x2="598" y1="90" gradientUnits="userSpaceOnUse" y2="131" xlink:type="simple" xlink:actuate="onLoad" id="linearGradient10" xlink:show="other" spreadMethod="pad">
<stop stop-opacity="1" stop-color="white" offset="0%"/>
<stop stop-opacity="1" stop-color="white" offset="100%"/>
</linearGradient>
<linearGradient x1="458" x2="458" y1="170" gradientUnits="userSpaceOnUse" y2="211" xlink:type="simple" xlink:actuate="onLoad" id="linearGradient11" xlink:show="other" spreadMethod="pad">
<stop stop-opacity="1" stop-color="white" offset="0%"/>
<stop stop-opacity="1" stop-color="white" offset="100%"/>
</linearGradient>
<linearGradient x1="458" x2="458" y1="90" gradientUnits="userSpaceOnUse" y2="131" xlink:type="simple" xlink:actuate="onLoad" id="linearGradient12" xlink:show="other" spreadMethod="pad">
<stop stop-opacity="1" stop-color="white" offset="0%"/>
<stop stop-opacity="1" stop-color="white" offset="100%"/>
</linearGradient>
<clipPath clipPathUnits="userSpaceOnUse" id="clipPath1">
<path d="M78 90 L78 130 L198 130 L198 90 Z"/>
</clipPath>
<clipPath clipPathUnits="userSpaceOnUse" id="clipPath2">
<path d="M110 92 L168 92 L168 108 L110 108 L110 92 Z"/>
</clipPath>
<clipPath clipPathUnits="userSpaceOnUse" id="clipPath3">
<path d="M78 107 L200 107 L200 132 L78 132 L78 107 Z"/>
</clipPath>
<clipPath clipPathUnits="userSpaceOnUse" id="clipPath4">
<path d="M77 89 L200 89 L200 132 L77 132 L77 89 Z"/>
</clipPath>
<clipPath clipPathUnits="userSpaceOnUse" id="clipPath5">
<path d="M78 190 L78 230 L198 230 L198 190 Z"/>
</clipPath>
<clipPath clipPathUnits="userSpaceOnUse" id="clipPath6">
<path d="M111 192 L167 192 L167 208 L111 208 L111 192 Z"/>
</clipPath>
<clipPath clipPathUnits="userSpaceOnUse" id="clipPath7">
<path d="M78 207 L200 207 L200 232 L78 232 L78 207 Z"/>
</clipPath>
<clipPath clipPathUnits="userSpaceOnUse" id="clipPath8">
<path d="M77 189 L200 189 L200 232 L77 232 L77 189 Z"/>
</clipPath>
<clipPath clipPathUnits="userSpaceOnUse" id="clipPath9">
<path d="M78 390 L78 430 L198 430 L198 390 Z"/>
</clipPath>
<clipPath clipPathUnits="userSpaceOnUse" id="clipPath10">
<path d="M111 392 L167 392 L167 408 L111 408 L111 392 Z"/>
</clipPath>
<clipPath clipPathUnits="userSpaceOnUse" id="clipPath11">
<path d="M78 407 L200 407 L200 432 L78 432 L78 407 Z"/>
</clipPath>
<clipPath clipPathUnits="userSpaceOnUse" id="clipPath12">
<path d="M77 389 L200 389 L200 432 L77 432 L77 389 Z"/>
</clipPath>
<clipPath clipPathUnits="userSpaceOnUse" id="clipPath13">
<path d="M78 290 L78 330 L198 330 L198 290 Z"/>
</clipPath>
<clipPath clipPathUnits="userSpaceOnUse" id="clipPath14">
<path d="M110 292 L168 292 L168 308 L110 308 L110 292 Z"/>
</clipPath>
<clipPath clipPathUnits="userSpaceOnUse" id="clipPath15">
<path d="M78 307 L200 307 L200 332 L78 332 L78 307 Z"/>
</clipPath>
<clipPath clipPathUnits="userSpaceOnUse" id="clipPath16">
<path d="M77 289 L200 289 L200 332 L77 332 L77 289 Z"/>
</clipPath>
<clipPath clipPathUnits="userSpaceOnUse" id="clipPath17">
<path d="M78 490 L78 530 L198 530 L198 490 Z"/>
</clipPath>
<clipPath clipPathUnits="userSpaceOnUse" id="clipPath18">
<path d="M110 492 L168 492 L168 508 L110 508 L110 492 Z"/>
</clipPath>
<clipPath clipPathUnits="userSpaceOnUse" id="clipPath19">
<path d="M78 507 L200 507 L200 532 L78 532 L78 507 Z"/>
</clipPath>
<clipPath clipPathUnits="userSpaceOnUse" id="clipPath20">
<path d="M77 489 L200 489 L200 532 L77 532 L77 489 Z"/>
</clipPath>
<clipPath clipPathUnits="userSpaceOnUse" id="clipPath21">
<path d="M558 390 L558 430 L678 430 L678 390 Z"/>
</clipPath>
<clipPath clipPathUnits="userSpaceOnUse" id="clipPath22">
<path d="M590 392 L648 392 L648 408 L590 408 L590 392 Z"/>
</clipPath>
<clipPath clipPathUnits="userSpaceOnUse" id="clipPath23">
<path d="M558 407 L680 407 L680 432 L558 432 L558 407 Z"/>
</clipPath>
<clipPath clipPathUnits="userSpaceOnUse" id="clipPath24">
<path d="M557 389 L680 389 L680 432 L557 432 L557 389 Z"/>
</clipPath>
<clipPath clipPathUnits="userSpaceOnUse" id="clipPath25">
<path d="M558 290 L558 330 L678 330 L678 290 Z"/>
</clipPath>
<clipPath clipPathUnits="userSpaceOnUse" id="clipPath26">
<path d="M591 292 L647 292 L647 308 L591 308 L591 292 Z"/>
</clipPath>
<clipPath clipPathUnits="userSpaceOnUse" id="clipPath27">
<path d="M558 307 L680 307 L680 332 L558 332 L558 307 Z"/>
</clipPath>
<clipPath clipPathUnits="userSpaceOnUse" id="clipPath28">
<path d="M557 289 L680 289 L680 332 L557 332 L557 289 Z"/>
</clipPath>
<clipPath clipPathUnits="userSpaceOnUse" id="clipPath29">
<path d="M318 390 L318 430 L438 430 L438 390 Z"/>
</clipPath>
<clipPath clipPathUnits="userSpaceOnUse" id="clipPath30">
<path d="M351 392 L407 392 L407 408 L351 408 L351 392 Z"/>
</clipPath>
<clipPath clipPathUnits="userSpaceOnUse" id="clipPath31">
<path d="M318 407 L440 407 L440 432 L318 432 L318 407 Z"/>
</clipPath>
<clipPath clipPathUnits="userSpaceOnUse" id="clipPath32">
<path d="M317 389 L440 389 L440 432 L317 432 L317 389 Z"/>
</clipPath>
<clipPath clipPathUnits="userSpaceOnUse" id="clipPath33">
<path d="M458 10 L458 50 L538 50 L538 10 Z"/>
</clipPath>
<clipPath clipPathUnits="userSpaceOnUse" id="clipPath34">
<path d="M490 22 L508 22 L508 38 L490 38 L490 22 Z"/>
</clipPath>
<clipPath clipPathUnits="userSpaceOnUse" id="clipPath35">
<path d="M457 9 L540 9 L540 52 L457 52 L457 9 Z"/>
</clipPath>
<clipPath clipPathUnits="userSpaceOnUse" id="clipPath36">
<path d="M598 90 L598 130 L678 130 L678 90 Z"/>
</clipPath>
<clipPath clipPathUnits="userSpaceOnUse" id="clipPath37">
<path d="M630 102 L648 102 L648 118 L630 118 L630 102 Z"/>
</clipPath>
<clipPath clipPathUnits="userSpaceOnUse" id="clipPath38">
<path d="M597 89 L680 89 L680 132 L597 132 L597 89 Z"/>
</clipPath>
<clipPath clipPathUnits="userSpaceOnUse" id="clipPath39">
<path d="M458 170 L458 210 L538 210 L538 170 Z"/>
</clipPath>
<clipPath clipPathUnits="userSpaceOnUse" id="clipPath40">
<path d="M490 182 L508 182 L508 198 L490 198 L490 182 Z"/>
</clipPath>
<clipPath clipPathUnits="userSpaceOnUse" id="clipPath41">
<path d="M457 169 L540 169 L540 212 L457 212 L457 169 Z"/>
</clipPath>
<clipPath clipPathUnits="userSpaceOnUse" id="clipPath42">
<path d="M458 90 L458 130 L538 130 L538 90 Z"/>
</clipPath>
<clipPath clipPathUnits="userSpaceOnUse" id="clipPath43">
<path d="M490 102 L508 102 L508 118 L490 118 L490 102 Z"/>
</clipPath>
<clipPath clipPathUnits="userSpaceOnUse" id="clipPath44">
<path d="M457 89 L540 89 L540 132 L457 132 L457 89 Z"/>
</clipPath>
<clipPath clipPathUnits="userSpaceOnUse" id="clipPath45">
<path d="M-1 -1 L756 -1 L756 542 L-1 542 L-1 -1 Z"/>
</clipPath>
<clipPath clipPathUnits="userSpaceOnUse" id="clipPath46">
<path d="M155 135 L161 135 L161 151 L155 151 L155 135 Z"/>
</clipPath>
<clipPath clipPathUnits="userSpaceOnUse" id="clipPath47">
<path d="M22 169 L123 169 L123 185 L22 185 L22 169 Z"/>
</clipPath>
<clipPath clipPathUnits="userSpaceOnUse" id="clipPath48">
<path d="M132 174 L145 174 L145 192 L132 192 L132 174 Z"/>
</clipPath>
<clipPath clipPathUnits="userSpaceOnUse" id="clipPath49">
<path d="M155 232 L161 232 L161 248 L155 248 L155 232 Z"/>
</clipPath>
<clipPath clipPathUnits="userSpaceOnUse" id="clipPath50">
<path d="M52 269 L121 269 L121 285 L52 285 L52 269 Z"/>
</clipPath>
<clipPath clipPathUnits="userSpaceOnUse" id="clipPath51">
<path d="M132 274 L145 274 L145 292 L132 292 L132 274 Z"/>
</clipPath>
<clipPath clipPathUnits="userSpaceOnUse" id="clipPath52">
<path d="M155 332 L161 332 L161 348 L155 348 L155 332 Z"/>
</clipPath>
<clipPath clipPathUnits="userSpaceOnUse" id="clipPath53">
<path d="M22 369 L123 369 L123 385 L22 385 L22 369 Z"/>
</clipPath>
<clipPath clipPathUnits="userSpaceOnUse" id="clipPath54">
<path d="M132 374 L145 374 L145 392 L132 392 L132 374 Z"/>
</clipPath>
<clipPath clipPathUnits="userSpaceOnUse" id="clipPath55">
<path d="M155 432 L161 432 L161 448 L155 448 L155 432 Z"/>
</clipPath>
<clipPath clipPathUnits="userSpaceOnUse" id="clipPath56">
<path d="M52 469 L121 469 L121 485 L52 485 L52 469 Z"/>
</clipPath>
<clipPath clipPathUnits="userSpaceOnUse" id="clipPath57">
<path d="M132 474 L145 474 L145 492 L132 492 L132 474 Z"/>
</clipPath>
<clipPath clipPathUnits="userSpaceOnUse" id="clipPath58">
<path d="M211 382 L217 382 L217 398 L211 398 L211 382 Z"/>
</clipPath>
<clipPath clipPathUnits="userSpaceOnUse" id="clipPath59">
<path d="M232 389 L300 389 L300 405 L232 405 L232 389 Z"/>
</clipPath>
<clipPath clipPathUnits="userSpaceOnUse" id="clipPath60">
<path d="M302 404 L320 404 L320 417 L302 417 L302 404 Z"/>
</clipPath>
<clipPath clipPathUnits="userSpaceOnUse" id="clipPath61">
<path d="M451 382 L457 382 L457 398 L451 398 L451 382 Z"/>
</clipPath>
<clipPath clipPathUnits="userSpaceOnUse" id="clipPath62">
<path d="M472 389 L541 389 L541 405 L472 405 L472 389 Z"/>
</clipPath>
<clipPath clipPathUnits="userSpaceOnUse" id="clipPath63">
<path d="M542 404 L560 404 L560 417 L542 417 L542 404 Z"/>
</clipPath>
<clipPath clipPathUnits="userSpaceOnUse" id="clipPath64">
<path d="M595 373 L601 373 L601 389 L595 389 L595 373 Z"/>
</clipPath>
<clipPath clipPathUnits="userSpaceOnUse" id="clipPath65">
<path d="M632 339 L733 339 L733 355 L632 355 L632 339 Z"/>
</clipPath>
<clipPath clipPathUnits="userSpaceOnUse" id="clipPath66">
<path d="M612 330 L625 330 L625 348 L612 348 L612 330 Z"/>
</clipPath>
<clipPath clipPathUnits="userSpaceOnUse" id="clipPath67">
<path d="M595 322 L601 322 L601 338 L595 338 L595 322 Z"/>
</clipPath>
<clipPath clipPathUnits="userSpaceOnUse" id="clipPath68">
<path d="M222 289 L291 289 L291 305 L222 305 L222 289 Z"/>
</clipPath>
<clipPath clipPathUnits="userSpaceOnUse" id="clipPath69">
<path d="M198 304 L216 304 L216 317 L198 317 L198 304 Z"/>
</clipPath>
<clipPath clipPathUnits="userSpaceOnUse" id="clipPath70">
<path d="M515 49 L521 49 L521 65 L515 65 L515 49 Z"/>
</clipPath>
<clipPath clipPathUnits="userSpaceOnUse" id="clipPath71">
<path d="M473 76 L483 76 L483 92 L473 92 L473 76 Z"/>
</clipPath>
<clipPath clipPathUnits="userSpaceOnUse" id="clipPath72">
<path d="M492 74 L505 74 L505 92 L492 92 L492 74 Z"/>
</clipPath>
<clipPath clipPathUnits="userSpaceOnUse" id="clipPath73">
<path d="M515 129 L521 129 L521 145 L515 145 L515 129 Z"/>
</clipPath>
<clipPath clipPathUnits="userSpaceOnUse" id="clipPath74">
<path d="M473 156 L483 156 L483 172 L473 172 L473 156 Z"/>
</clipPath>
<clipPath clipPathUnits="userSpaceOnUse" id="clipPath75">
<path d="M492 154 L505 154 L505 172 L492 172 L492 154 Z"/>
</clipPath>
<clipPath clipPathUnits="userSpaceOnUse" id="clipPath76">
<path d="M539 92 L545 92 L545 108 L539 108 L539 92 Z"/>
</clipPath>
<clipPath clipPathUnits="userSpaceOnUse" id="clipPath77">
<path d="M590 132 L600 132 L600 148 L590 148 L590 132 Z"/>
</clipPath>
<clipPath clipPathUnits="userSpaceOnUse" id="clipPath78">
<path d="M582 114 L600 114 L600 127 L582 127 L582 114 Z"/>
</clipPath>
<clipPath clipPathUnits="userSpaceOnUse" id="clipPath79">
<path d="M590 112 L596 112 L596 128 L590 128 L590 112 Z"/>
</clipPath>
<clipPath clipPathUnits="userSpaceOnUse" id="clipPath80">
<path d="M538 72 L548 72 L548 88 L538 88 L538 72 Z"/>
</clipPath>
<clipPath clipPathUnits="userSpaceOnUse" id="clipPath81">
<path d="M538 94 L556 94 L556 107 L538 107 L538 94 Z"/>
</clipPath>
</defs>
<g font-size="15" fill="url(#linearGradient1)" font-family="'Ubuntu'" stroke-linejoin="round" stroke="url(#linearGradient1)" stroke-width="0" stroke-miterlimit="0">
<rect x="78" y="90" clip-path="url(#clipPath1)" width="121" height="41" stroke="none"/>
</g>
<g stroke-miterlimit="0" stroke-width="0" stroke-linejoin="round">
<text xml:space="preserve" x="111" y="105" clip-path="url(#clipPath2)" stroke="none">B1: Label</text>
</g>
<g stroke-width="1.1" font-size="15" font-family="'Ubuntu'" stroke-linecap="butt">
<line clip-path="url(#clipPath3)" fill="none" x1="78" x2="199" y1="108" y2="108"/>
<rect x="78" y="90" clip-path="url(#clipPath4)" fill="none" width="120" rx="0" ry="0" height="40"/>
<rect x="78" y="190" clip-path="url(#clipPath5)" fill="url(#linearGradient2)" width="121" height="41" stroke="none"/>
<text x="112" font-size="12" y="205" clip-path="url(#clipPath6)" font-family="'Dialog'" stroke="none" xml:space="preserve">e1: Edge</text>
<line clip-path="url(#clipPath7)" fill="none" x1="78" x2="199" y1="208" y2="208"/>
<rect x="78" y="190" clip-path="url(#clipPath8)" fill="none" width="120" rx="0" ry="0" height="40"/>
<rect x="78" y="390" clip-path="url(#clipPath9)" fill="url(#linearGradient3)" width="121" height="41" stroke="none"/>
<text x="112" font-size="12" y="405" clip-path="url(#clipPath10)" font-family="'Dialog'" stroke="none" xml:space="preserve">e2: Edge</text>
<line clip-path="url(#clipPath11)" fill="none" x1="78" x2="199" y1="408" y2="408"/>
<rect x="78" y="390" clip-path="url(#clipPath12)" fill="none" width="120" rx="0" ry="0" height="40"/>
<rect x="78" y="290" clip-path="url(#clipPath13)" fill="url(#linearGradient4)" width="121" height="41" stroke="none"/>
<text x="111" font-size="12" y="305" clip-path="url(#clipPath14)" font-family="'Dialog'" stroke="none" xml:space="preserve">B3: Label</text>
<line clip-path="url(#clipPath15)" fill="none" x1="78" x2="199" y1="308" y2="308"/>
<rect x="78" y="290" clip-path="url(#clipPath16)" fill="none" width="120" rx="0" ry="0" height="40"/>
<rect x="78" y="490" clip-path="url(#clipPath17)" fill="url(#linearGradient5)" width="121" height="41" stroke="none"/>
<text x="111" font-size="12" y="505" clip-path="url(#clipPath18)" font-family="'Dialog'" stroke="none" xml:space="preserve">B4: Label</text>
<line clip-path="url(#clipPath19)" fill="none" x1="78" x2="199" y1="508" y2="508"/>
<rect x="78" y="490" clip-path="url(#clipPath20)" fill="none" width="120" rx="0" ry="0" height="40"/>
<rect x="558" y="390" clip-path="url(#clipPath21)" fill="url(#linearGradient6)" width="121" height="41" stroke="none"/>
<text x="591" font-size="12" y="405" clip-path="url(#clipPath22)" font-family="'Dialog'" stroke="none" xml:space="preserve">B2: Label</text>
<line clip-path="url(#clipPath23)" fill="none" x1="558" x2="679" y1="408" y2="408"/>
<rect x="558" y="390" clip-path="url(#clipPath24)" fill="none" width="120" rx="0" ry="0" height="40"/>
<rect x="558" y="290" clip-path="url(#clipPath25)" fill="url(#linearGradient7)" width="121" height="41" stroke="none"/>
<text x="592" font-size="12" y="305" clip-path="url(#clipPath26)" font-family="'Dialog'" stroke="none" xml:space="preserve">e4: Edge</text>
<line clip-path="url(#clipPath27)" fill="none" x1="558" x2="679" y1="308" y2="308"/>
<rect x="558" y="290" clip-path="url(#clipPath28)" fill="none" width="120" rx="0" ry="0" height="40"/>
<rect x="318" y="390" clip-path="url(#clipPath29)" fill="url(#linearGradient8)" width="121" height="41" stroke="none"/>
<text x="352" font-size="12" y="405" clip-path="url(#clipPath30)" font-family="'Dialog'" stroke="none" xml:space="preserve">e3: Edge</text>
<line clip-path="url(#clipPath31)" fill="none" x1="318" x2="439" y1="408" y2="408"/>
<rect x="318" y="390" clip-path="url(#clipPath32)" fill="none" width="120" rx="0" ry="0" height="40"/>
<rect x="458" y="10" clip-path="url(#clipPath33)" fill="url(#linearGradient9)" width="81" height="41" stroke="none"/>
<text x="491" font-size="12" y="35" clip-path="url(#clipPath34)" font-family="'Dialog'" stroke="none" xml:space="preserve">B1</text>
<rect x="458" y="10" clip-path="url(#clipPath35)" fill="none" width="80" rx="0" ry="0" height="40"/>
<rect x="598" y="90" clip-path="url(#clipPath36)" fill="url(#linearGradient10)" width="81" height="41" stroke="none"/>
<text x="631" font-size="12" y="115" clip-path="url(#clipPath37)" font-family="'Dialog'" stroke="none" xml:space="preserve">B2</text>
<rect x="598" y="90" clip-path="url(#clipPath38)" fill="none" width="80" rx="0" ry="0" height="40"/>
<rect x="458" y="170" clip-path="url(#clipPath39)" fill="url(#linearGradient11)" width="81" height="41" stroke="none"/>
<text x="491" font-size="12" y="195" clip-path="url(#clipPath40)" font-family="'Dialog'" stroke="none" xml:space="preserve">B4</text>
<rect x="458" y="170" clip-path="url(#clipPath41)" fill="none" width="80" rx="0" ry="0" height="40"/>
<rect x="458" y="90" clip-path="url(#clipPath42)" fill="url(#linearGradient12)" width="81" height="41" stroke="none"/>
<text x="491" font-size="12" y="115" clip-path="url(#clipPath43)" font-family="'Dialog'" stroke="none" xml:space="preserve">B3</text>
<rect x="458" y="90" clip-path="url(#clipPath44)" fill="none" width="80" rx="0" ry="0" height="40"/>
<line clip-path="url(#clipPath45)" fill="none" text-rendering="optimizeLegibility" x1="138" x2="138" y1="131" y2="190"/>
<text x="156" font-size="12" y="148" clip-path="url(#clipPath46)" text-rendering="optimizeLegibility" font-family="'Dialog'" stroke="none" xml:space="preserve"> </text>
<text x="23" font-size="12" y="182" clip-path="url(#clipPath47)" text-rendering="optimizeLegibility" font-family="'Dialog'" stroke="none" xml:space="preserve">  outgoingEdges</text>
<line clip-path="url(#clipPath48)" fill="none" text-rendering="optimizeLegibility" x1="133" x2="138" y1="175" y2="190"/>
<line clip-path="url(#clipPath48)" fill="none" text-rendering="optimizeLegibility" x1="138" x2="143" y1="190" y2="175"/>
<line clip-path="url(#clipPath45)" fill="none" text-rendering="optimizeLegibility" x1="138" x2="138" y1="231" y2="290"/>
<text x="156" font-size="12" y="245" clip-path="url(#clipPath49)" text-rendering="optimizeLegibility" font-family="'Dialog'" stroke="none" xml:space="preserve"> </text>
<text x="53" font-size="12" y="282" clip-path="url(#clipPath50)" text-rendering="optimizeLegibility" font-family="'Dialog'" stroke="none" xml:space="preserve">  successor</text>
<line clip-path="url(#clipPath51)" fill="none" text-rendering="optimizeLegibility" x1="133" x2="138" y1="275" y2="290"/>
<line clip-path="url(#clipPath51)" fill="none" text-rendering="optimizeLegibility" x1="138" x2="143" y1="290" y2="275"/>
<line clip-path="url(#clipPath45)" fill="none" text-rendering="optimizeLegibility" x1="138" x2="138" y1="331" y2="390"/>
<text x="156" font-size="12" y="345" clip-path="url(#clipPath52)" text-rendering="optimizeLegibility" font-family="'Dialog'" stroke="none" xml:space="preserve"> </text>
<text x="23" font-size="12" y="382" clip-path="url(#clipPath53)" text-rendering="optimizeLegibility" font-family="'Dialog'" stroke="none" xml:space="preserve">  outgoingEdges</text>
<line clip-path="url(#clipPath54)" fill="none" text-rendering="optimizeLegibility" x1="133" x2="138" y1="375" y2="390"/>
<line clip-path="url(#clipPath54)" fill="none" text-rendering="optimizeLegibility" x1="138" x2="143" y1="390" y2="375"/>
<line clip-path="url(#clipPath45)" fill="none" text-rendering="optimizeLegibility" x1="138" x2="138" y1="431" y2="490"/>
<text x="156" font-size="12" y="445" clip-path="url(#clipPath55)" text-rendering="optimizeLegibility" font-family="'Dialog'" stroke="none" xml:space="preserve"> </text>
<text x="53" font-size="12" y="482" clip-path="url(#clipPath56)" text-rendering="optimizeLegibility" font-family="'Dialog'" stroke="none" xml:space="preserve">  successor</text>
<line clip-path="url(#clipPath57)" fill="none" text-rendering="optimizeLegibility" x1="133" x2="138" y1="475" y2="490"/>
<line clip-path="url(#clipPath57)" fill="none" text-rendering="optimizeLegibility" x1="138" x2="143" y1="490" y2="475"/>
<line clip-path="url(#clipPath45)" fill="none" text-rendering="optimizeLegibility" x1="199" x2="318" y1="410" y2="410"/>
<text x="212" font-size="12" y="395" clip-path="url(#clipPath58)" text-rendering="optimizeLegibility" font-family="'Dialog'" stroke="none" xml:space="preserve"> </text>
<text x="233" font-size="12" y="402" clip-path="url(#clipPath59)" text-rendering="optimizeLegibility" font-family="'Dialog'" stroke="none" xml:space="preserve">  nextEdge</text>
<line clip-path="url(#clipPath60)" fill="none" text-rendering="optimizeLegibility" x1="303" x2="318" y1="415" y2="410"/>
<line clip-path="url(#clipPath60)" fill="none" text-rendering="optimizeLegibility" x1="318" x2="303" y1="410" y2="405"/>
<line clip-path="url(#clipPath45)" fill="none" text-rendering="optimizeLegibility" x1="439" x2="558" y1="410" y2="410"/>
<text x="452" font-size="12" y="395" clip-path="url(#clipPath61)" text-rendering="optimizeLegibility" font-family="'Dialog'" stroke="none" xml:space="preserve"> </text>
<text x="473" font-size="12" y="402" clip-path="url(#clipPath62)" text-rendering="optimizeLegibility" font-family="'Dialog'" stroke="none" xml:space="preserve">  successor</text>
<line clip-path="url(#clipPath63)" fill="none" text-rendering="optimizeLegibility" x1="543" x2="558" y1="415" y2="410"/>
<line clip-path="url(#clipPath63)" fill="none" text-rendering="optimizeLegibility" x1="558" x2="543" y1="410" y2="405"/>
<line clip-path="url(#clipPath45)" fill="none" text-rendering="optimizeLegibility" x1="618" x2="618" y1="390" y2="331"/>
<text x="596" font-size="12" y="386" clip-path="url(#clipPath64)" text-rendering="optimizeLegibility" font-family="'Dialog'" stroke="none" xml:space="preserve"> </text>
<text x="633" font-size="12" y="352" clip-path="url(#clipPath65)" text-rendering="optimizeLegibility" font-family="'Dialog'" stroke="none" xml:space="preserve">  outgoingEdges</text>
<line clip-path="url(#clipPath66)" fill="none" text-rendering="optimizeLegibility" x1="623" x2="618" y1="346" y2="331"/>
<line clip-path="url(#clipPath66)" fill="none" text-rendering="optimizeLegibility" x1="618" x2="613" y1="331" y2="346"/>
<line clip-path="url(#clipPath45)" fill="none" text-rendering="optimizeLegibility" x1="558" x2="199" y1="310" y2="310"/>
<text x="596" font-size="12" y="335" clip-path="url(#clipPath67)" text-rendering="optimizeLegibility" font-family="'Dialog'" stroke="none" xml:space="preserve"> </text>
<text x="223" font-size="12" y="302" clip-path="url(#clipPath68)" text-rendering="optimizeLegibility" font-family="'Dialog'" stroke="none" xml:space="preserve">  successor</text>
<line clip-path="url(#clipPath69)" fill="none" text-rendering="optimizeLegibility" x1="214" x2="199" y1="305" y2="310"/>
<line clip-path="url(#clipPath69)" fill="none" text-rendering="optimizeLegibility" x1="199" x2="214" y1="310" y2="315"/>
<line clip-path="url(#clipPath45)" fill="none" text-rendering="optimizeLegibility" x1="498" x2="498" y1="51" y2="90"/>
<text x="516" font-size="12" y="62" clip-path="url(#clipPath70)" text-rendering="optimizeLegibility" font-family="'Dialog'" stroke="none" xml:space="preserve"> </text>
<text x="474" font-size="12" y="89" clip-path="url(#clipPath71)" text-rendering="optimizeLegibility" font-family="'Dialog'" stroke="none" xml:space="preserve">  </text>
<line clip-path="url(#clipPath72)" fill="none" text-rendering="optimizeLegibility" x1="493" x2="498" y1="75" y2="90"/>
<line clip-path="url(#clipPath72)" fill="none" text-rendering="optimizeLegibility" x1="498" x2="503" y1="90" y2="75"/>
<line clip-path="url(#clipPath45)" fill="none" text-rendering="optimizeLegibility" x1="498" x2="498" y1="131" y2="170"/>
<text x="516" font-size="12" y="142" clip-path="url(#clipPath73)" text-rendering="optimizeLegibility" font-family="'Dialog'" stroke="none" xml:space="preserve"> </text>
<text x="474" font-size="12" y="169" clip-path="url(#clipPath74)" text-rendering="optimizeLegibility" font-family="'Dialog'" stroke="none" xml:space="preserve">  </text>
<line clip-path="url(#clipPath75)" fill="none" text-rendering="optimizeLegibility" x1="493" x2="498" y1="155" y2="170"/>
<line clip-path="url(#clipPath75)" fill="none" text-rendering="optimizeLegibility" x1="498" x2="503" y1="170" y2="155"/>
<line clip-path="url(#clipPath45)" fill="none" text-rendering="optimizeLegibility" x1="539" x2="598" y1="120" y2="120"/>
<text x="540" font-size="12" y="105" clip-path="url(#clipPath76)" text-rendering="optimizeLegibility" font-family="'Dialog'" stroke="none" xml:space="preserve"> </text>
<text x="591" font-size="12" y="145" clip-path="url(#clipPath77)" text-rendering="optimizeLegibility" font-family="'Dialog'" stroke="none" xml:space="preserve">  </text>
<line clip-path="url(#clipPath78)" fill="none" text-rendering="optimizeLegibility" x1="583" x2="598" y1="125" y2="120"/>
<line clip-path="url(#clipPath78)" fill="none" text-rendering="optimizeLegibility" x1="598" x2="583" y1="120" y2="115"/>
<line clip-path="url(#clipPath45)" fill="none" text-rendering="optimizeLegibility" x1="598" x2="539" y1="100" y2="100"/>
<text x="591" font-size="12" y="125" clip-path="url(#clipPath79)" text-rendering="optimizeLegibility" font-family="'Dialog'" stroke="none" xml:space="preserve"> </text>
<text x="539" font-size="12" y="85" clip-path="url(#clipPath80)" text-rendering="optimizeLegibility" font-family="'Dialog'" stroke="none" xml:space="preserve">  </text>
<line clip-path="url(#clipPath81)" fill="none" text-rendering="optimizeLegibility" x1="554" x2="539" y1="95" y2="100"/>
<line clip-path="url(#clipPath81)" fill="none" text-rendering="optimizeLegibility" x1="539" x2="554" y1="100" y2="105"/>
</g>
</g>
</svg>
